/* XPM */
static char * icon_xpm[] = {
"48 48 473 2",
"  	c None",
". 	c #2E78B3",
"+ 	c #2F73AD",
"@ 	c #3075AD",
"# 	c #255B85",
"$ 	c #111F2B",
"% 	c #23567A",
"& 	c #2B76A9",
"* 	c #2D73AA",
"= 	c #2D7FB4",
"- 	c #2D83C0",
"; 	c #3087CA",
"> 	c #245579",
", 	c #1C303E",
"' 	c #2A5472",
") 	c #28465D",
"! 	c #273B49",
"~ 	c #253036",
"{ 	c #252828",
"] 	c #24231F",
"^ 	c #242522",
"/ 	c #252E33",
"( 	c #263944",
"_ 	c #27475A",
": 	c #29506E",
"< 	c #2B5E7E",
"[ 	c #2C70A1",
"} 	c #3083C1",
"| 	c #3089CB",
"1 	c #2E84BF",
"2 	c #296994",
"3 	c #284357",
"4 	c #25333B",
"5 	c #22221F",
"6 	c #242726",
"7 	c #26333C",
"8 	c #284050",
"9 	c #2A638D",
"0 	c #2F80BD",
"a 	c #3188C7",
"b 	c #2D658D",
"c 	c #263842",
"d 	c #242624",
"e 	c #242320",
"f 	c #24231E",
"g 	c #242623",
"h 	c #253238",
"i 	c #2B6287",
"j 	c #3078AF",
"k 	c #1A262D",
"l 	c #1F2526",
"m 	c #252523",
"n 	c #23221E",
"o 	c #25221E",
"p 	c #23231E",
"q 	c #23241D",
"r 	c #24241E",
"s 	c #25231E",
"t 	c #23231D",
"u 	c #23231C",
"v 	c #24221F",
"w 	c #25231D",
"x 	c #23231F",
"y 	c #24231D",
"z 	c #25231F",
"A 	c #262420",
"B 	c #263740",
"C 	c #2A5D81",
"D 	c #2F7DB7",
"E 	c #253D4D",
"F 	c #212523",
"G 	c #24221E",
"H 	c #23221D",
"I 	c #24231C",
"J 	c #26221E",
"K 	c #24241D",
"L 	c #25221D",
"M 	c #24241F",
"N 	c #25241F",
"O 	c #25241D",
"P 	c #242C2C",
"Q 	c #29475C",
"R 	c #2D84C0",
"S 	c #263642",
"T 	c #26241F",
"U 	c #26231D",
"V 	c #23221F",
"W 	c #25221F",
"X 	c #23241F",
"Y 	c #242521",
"Z 	c #273E4B",
"` 	c #2D6FA0",
" .	c #273946",
"..	c #26231F",
"+.	c #22221D",
"@.	c #26231E",
"#.	c #262320",
"$.	c #25241E",
"%.	c #253B47",
"&.	c #2B6997",
"*.	c #202221",
"=.	c #21221D",
"-.	c #24221D",
";.	c #25211E",
">.	c #27241D",
",.	c #444C1E",
"'.	c #454D1E",
").	c #27271E",
"!.	c #242420",
"~.	c #25251E",
"{.	c #23251F",
"].	c #24211F",
"^.	c #22241D",
"/.	c #263945",
"(.	c #2A73A7",
"_.	c #252522",
":.	c #27241E",
"<.	c #252420",
"[.	c #24251E",
"}.	c #22221E",
"|.	c #28291E",
"1.	c #525E1E",
"2.	c #95B21F",
"3.	c #2B281F",
"4.	c #27231F",
"5.	c #23241E",
"6.	c #24251F",
"7.	c #25241C",
"8.	c #21231D",
"9.	c #25251D",
"0.	c #273C4A",
"a.	c #2D73A9",
"b.	c #242825",
"c.	c #292B1D",
"d.	c #434A1E",
"e.	c #393B1D",
"f.	c #24251C",
"g.	c #29281E",
"h.	c #42491D",
"i.	c #6C7F1E",
"j.	c #9DBE1F",
"k.	c #A5C720",
"l.	c #9DBD1F",
"m.	c #6B7E1E",
"n.	c #42491E",
"o.	c #292A1F",
"p.	c #24211E",
"q.	c #23211C",
"r.	c #373D1E",
"s.	c #434C1E",
"t.	c #292B1E",
"u.	c #252422",
"v.	c #284963",
"w.	c #242827",
"x.	c #373B1F",
"y.	c #88A21F",
"z.	c #849D1F",
"A.	c #5F6F1E",
"B.	c #42481E",
"C.	c #2F301E",
"D.	c #28291C",
"E.	c #282A1E",
"F.	c #2B2C1E",
"G.	c #363C1D",
"H.	c #505B1D",
"I.	c #6C801D",
"J.	c #90AD1F",
"K.	c #A2C320",
"L.	c #6D801E",
"M.	c #4F5A1E",
"N.	c #363A1E",
"O.	c #2A2A1D",
"P.	c #29291E",
"Q.	c #28281E",
"R.	c #28291D",
"S.	c #2E2F1D",
"T.	c #616E1E",
"U.	c #849E1F",
"V.	c #88A31F",
"W.	c #263037",
"X.	c #2E6795",
"Y.	c #48511E",
"Z.	c #A3C420",
"`.	c #A4C620",
" +	c #A0C020",
".+	c #96B420",
"++	c #8EAA1F",
"@+	c #829B1E",
"#+	c #7B921E",
"$+	c #7D951F",
"%+	c #87A11F",
"&+	c #92B01F",
"*+	c #9BBA20",
"=+	c #93AF1F",
"-+	c #86A01F",
";+	c #7D941F",
">+	c #7A921E",
",+	c #819A1E",
"'+	c #96B41F",
")+	c #47511F",
"!+	c #284457",
"~+	c #71831F",
"{+	c #6F8320",
"]+	c #242421",
"^+	c #2F658D",
"/+	c #88A11F",
"(+	c #283B47",
"_+	c #232320",
":+	c #232120",
"<+	c #535E20",
"[+	c #9CBB1F",
"}+	c #525D1D",
"|+	c #262F33",
"1+	c #2D5876",
"2+	c #29291F",
"3+	c #697C1E",
"4+	c #A4C520",
"5+	c #6A7C1F",
"6+	c #282C1F",
"7+	c #4D591D",
"8+	c #9AB91F",
"9+	c #9AB920",
"0+	c #4E591E",
"a+	c #23251D",
"b+	c #283A48",
"c+	c #26241E",
"d+	c #40471D",
"e+	c #91AE1F",
"f+	c #9EBE20",
"g+	c #809720",
"h+	c #5E6D1F",
"i+	c #505A1F",
"j+	c #40481D",
"k+	c #2A4D64",
"l+	c #3B421E",
"m+	c #A1C120",
"n+	c #7C9320",
"o+	c #3F441F",
"p+	c #2C2C1E",
"q+	c #33351E",
"r+	c #383B1E",
"s+	c #8FAA20",
"t+	c #3D411F",
"u+	c #2C5475",
"v+	c #3D421D",
"w+	c #9FBF20",
"x+	c #6F821F",
"y+	c #3A3E1E",
"z+	c #62701F",
"A+	c #829A1F",
"B+	c #93B020",
"C+	c #8FAA1F",
"D+	c #3C411E",
"E+	c #2E536F",
"F+	c #3F451E",
"G+	c #90AC1F",
"H+	c #A3C520",
"I+	c #798F1F",
"J+	c #32341E",
"K+	c #43491F",
"L+	c #89A220",
"M+	c #98B720",
"N+	c #63721F",
"O+	c #3D441E",
"P+	c #1F282C",
"Q+	c #40451E",
"R+	c #91AD1F",
"S+	c #95B220",
"T+	c #3F451F",
"U+	c #393D1E",
"V+	c #8FAB20",
"W+	c #859E20",
"X+	c #41471E",
"Y+	c #31331E",
"Z+	c #35381E",
"`+	c #3E441F",
" @	c #3E461E",
".@	c #25221C",
"+@	c #212322",
"@@	c #90AC20",
"#@	c #73871F",
"$@	c #2A291E",
"%@	c #71841F",
"&@	c #92AF20",
"*@	c #41481E",
"=@	c #383C1E",
"-@	c #70831F",
";@	c #91AD20",
">@	c #90AD20",
",@	c #3E461F",
"'@	c #232220",
")@	c #3B3F1E",
"!@	c #8EA920",
"~@	c #4E571E",
"{@	c #8CA720",
"]@	c #32331E",
"^@	c #768A1F",
"/@	c #95B320",
"(@	c #66761F",
"_@	c #4D561E",
":@	c #8DAA20",
"<@	c #3A411F",
"[@	c #383D1D",
"}@	c #8CA71F",
"|@	c #3A3D1E",
"1@	c #4B541E",
"2@	c #99B720",
"3@	c #444B1E",
"4@	c #49511F",
"5@	c #98B620",
"6@	c #55601F",
"7@	c #535E1E",
"8@	c #373B1E",
"9@	c #252929",
"0@	c #31341D",
"a@	c #34361E",
"b@	c #4E571F",
"c@	c #9BBB20",
"d@	c #3B401E",
"e@	c #4F591F",
"f@	c #3D421E",
"g@	c #87A21F",
"h@	c #31361E",
"i@	c #22231E",
"j@	c #202323",
"k@	c #81991F",
"l@	c #3F441E",
"m@	c #474E1E",
"n@	c #40451F",
"o@	c #72861F",
"p@	c #71851F",
"q@	c #3E431E",
"r@	c #282A1D",
"s@	c #1B1E1E",
"t@	c #24221C",
"u@	c #74881F",
"v@	c #5A671F",
"w@	c #35371E",
"x@	c #859E1F",
"y@	c #7E9520",
"z@	c #2D2D1E",
"A@	c #5F6D1F",
"B@	c #59661F",
"C@	c #73881E",
"D@	c #213340",
"E@	c #58651D",
"F@	c #A2C420",
"G@	c #86A020",
"H@	c #2B2B1E",
"I@	c #57631F",
"J@	c #61711F",
"K@	c #464D1F",
"L@	c #697A1F",
"M@	c #859F20",
"N@	c #58661F",
"O@	c #263A47",
"P@	c #25211D",
"Q@	c #3C421E",
"R@	c #A0C120",
"S@	c #9CBC20",
"T@	c #535E1F",
"U@	c #97B520",
"V@	c #6B7D1F",
"W@	c #454C1F",
"X@	c #33341E",
"Y@	c #3D431F",
"Z@	c #232321",
"`@	c #28281F",
" #	c #96B51F",
".#	c #69791F",
"+#	c #8DA820",
"@#	c #29271F",
"##	c #24211D",
"$#	c #202425",
"%#	c #6D801F",
"&#	c #58641F",
"*#	c #6E821F",
"=#	c #6D7F1E",
"-#	c #434B1E",
";#	c #29271E",
">#	c #9DBD20",
",#	c #454C1E",
"'#	c #222220",
")#	c #24241C",
"!#	c #2D311E",
"~#	c #7A911E",
"{#	c #89A31F",
"]#	c #839B1F",
"^#	c #7C931F",
"/#	c #2F321F",
"(#	c #22231C",
"_#	c #242F34",
":#	c #4A551E",
"<#	c #97B51F",
"[#	c #22241E",
"}#	c #252726",
"|#	c #2A2B1E",
"1#	c #6D7F1F",
"2#	c #2A2B1D",
"3#	c #283F4E",
"4#	c #24251A",
"5#	c #34381F",
"6#	c #8CA81F",
"7#	c #33361C",
"8#	c #27353C",
"9#	c #22231D",
"0#	c #41491D",
"a#	c #242321",
"b#	c #243238",
"c#	c #26271F",
"d#	c #4A531F",
"e#	c #8AA41F",
"f#	c #49531D",
"g#	c #27261D",
"h#	c #222728",
"i#	c #424A1E",
"j#	c #26271D",
"k#	c #23221C",
"l#	c #20211F",
"m#	c #252520",
"n#	c #33381F",
"o#	c #6A7F1D",
"p#	c #99B91F",
"q#	c #6C7E1E",
"r#	c #33371D",
"s#	c #2A3844",
"t#	c #24221B",
"u#	c #26281B",
"v#	c #48511D",
"w#	c #98B71F",
"x#	c #79901D",
"y#	c #47511E",
"z#	c #27281E",
"A#	c #232A2C",
"B#	c #2F321E",
"C#	c #505D1F",
"D#	c #748A1E",
"E#	c #99B81F",
"F#	c #748A1D",
"G#	c #505C1E",
"H#	c #2F341D",
"I#	c #222524",
"J#	c #1F2424",
"K#	c #22241F",
"L#	c #25251F",
"M#	c #26261E",
"N#	c #2D2F1E",
"O#	c #454F1D",
"P#	c #778D1F",
"Q#	c #778D1E",
"R#	c #46501F",
"S#	c #2D2D1D",
"T#	c #242220",
"U#	c #23261E",
"V#	c #242523",
"W#	c #26363E",
"X#	c #232420",
"Y#	c #232523",
"Z#	c #2F5878",
"`#	c #222626",
" $	c #252928",
".$	c #293D49",
"+$	c #21292C",
"@$	c #1D2221",
"#$	c #2B485E",
"$$	c #2A4253",
"%$	c #232A2D",
"&$	c #222321",
"*$	c #252827",
"=$	c #262E33",
"-$	c #1C2021",
";$	c #1B242B",
">$	c #2C4E6A",
"                                      . + @ # $ % & * = -                                       ",
"                              ; > , ' ) ! ~ { ] ^ / ( _ : < [ } |                               ",
"                          1 2 3 4 5 ] ] ] ] ] ] ] ] ] ] ] 6 7 8 9 0 a                           ",
"                        b c d e ] ] ] f ] ] f ] ] ] ] ] f ] ] ] g h i j                         ",
"                    k l m n ] o f p f q r s t u v w p x y z f x p q A B C D                     ",
"                  E F n f G H f G z s I y J f n G o ] ] K L G M o N s O P Q R                   ",
"                S ^ f f r r z x f f J f r s T r s f s y K U n V W G M X t Y Z `                 ",
"               .p p f r r p H G ..G f +.G M p M @.#.M $.N M G M ] J ..W M p ] %.&.              ",
"            *.p =.x -.K t f +.s s M x ] ;.x >.,.'.).p !.T p ~.t r z -.o {.].^.p /.(.            ",
"          _.:.f w @.p w <.n p [.@.X }.e w |.1.2.2.1.3.4.p 5.6.5.7.s t G G W 8.9.r 0.a.          ",
"          b.$.c.d.e.f.O N ] f f x p s g.h.i.j.k.k.l.m.n.o.5.$.o L p.q.G J :.r.s.t.u.v.          ",
"        w.5.$.x.y.z.A.B.C.c.D.E.F.G.H.I.J.K.k.k.k.k.K.J.L.M.N.O.P.Q.R.S.B.T.U.V.N.t W.X.        ",
"        ] f N Y.Z.`. +.+++@+#+$+%+&+*+Z.k.k.k.k.k.k.k.k.Z.*+=+-+;+>+,+++'+ +`.Z.)+f M !+        ",
"      ] f r f ~+k.k.k.k.k.k.k.k.k.k.k.k.k.k.k.k.k.k.k.k.k.k.k.k.k.k.k.k.k.k.k.k.{+n ] ]+^+      ",
"      ] y y f /+k.k.k.k.k.k.k.k.k.k.k.k.k.k.k.k.k.k.k.k.k.k.k.k.k.k.k.k.k.k.k.k.%+5 v ] (+      ",
"    _+] s p :+<+[+k.k.k.k.k.k.k.k.k.k.k.k.k.k.k.k.k.k.k.k.k.k.k.k.k.k.k.k.k.k.[+}+n ] ] |+1+    ",
"    ] ] W z N 2+3+4+k.k.k.k.k.k.k.k.k.k.k.k.k.k.k.k.k.k.k.k.k.k.k.k.k.k.k.k.4+5+6+M f ] ] 8     ",
"    ] ] G $.G s 7+8+k.k.k.k.k.k.k.k.k.k.k.k.k.k.k.k.k.k.k.k.k.k.k.k.k.k.k.k.9+0+a+N ] ] ] b+    ",
"  ] ] ] ]+c+7.[.d+e+k.k.k.k.k.k.k.k.k.k.f+g+h+i+i+h+g+f+k.k.k.k.k.k.k.k.k.k.e+j+K f ] ] ] { k+  ",
"  ] ] ] p ] f p l+++k.k.k.k.k.k.k.k.m+n+o+p+q+r+r+q+p+o+n+m+k.k.k.k.k.k.k.k.s+t+p o f ] ] ] u+  ",
"  ] ] ] 5.W G p v+++k.k.k.k.k.k.k.w+x+C.y+z+A+B+B+A+z+y+C.x+w+k.k.k.k.k.k.k.C+D+] W z ] ] ] E+  ",
"  ] ] ] n p.f p F+G+k.k.k.k.k.k.H+I+J+K+L+M+I+N+N+I+M+L+K+J+I+H+k.k.k.k.k.k.G+O+] o ] ] ] ] P+  ",
"  ] ] ] o r ] ..Q+R+k.k.k.k.k.k.S+T+U+V+W+X+Y+Z+Z+Y+X+W+V+U+`+S+k.k.k.k.k.k.J. @z .@] ] ] ] +@  ",
"  ] ] ] n f n f T+@@k.k.k.k.k.k.#@$@%@&@*@=@-@;@;@-@=@*@&@%@$@#@k.k.k.k.k.k.>@,@X p f ] ] ] _+  ",
"  ] ] ] '@n f s )@!@k.k.k.k.k.k.~@D+{@5+]@^@/@(@(@/@^@]@5+{@D+_@k.k.k.k.k.k.:@<@x f ] ] ] ] !.  ",
"  ] ] ] G n f f [@}@k.k.k.k.k.k.|@1@2@3@4@5@6@g.g.7@5@4@3@2@1@8@k.k.k.k.k.k.}@=@O p ] ] ] ] 9@  ",
"  ] ] ] f -.n H 0@y.k.k.k.k.k.k.a@b@c@d@e@f+Q+s s f@f+e@d@c@b@]@k.k.k.k.k.k.g@h@y i@X ] ] ] j@  ",
"  ] ] ] i@r J s E.k@k.k.k.k.k.k.l@m@/@e@n@V+o@]@]@p@V+n@e@/@m@q@k.k.k.k.k.k.k@r@H H v ] ] ] s@  ",
"  ] ] ] a+K t@] N u@`.k.k.k.k.k.v@w@x@y@z@A@M+V+V+M+A@z@y@x@a@B@k.k.k.k.k.`.C@H p v e ] ] ] D@  ",
"  ] ] ] n ] ] c+L E@F@k.k.k.k.k.G@H@I@M+J@H@K@L@L@K@H@J@M+I@H@M@k.k.k.k.k.F@N@N f ] G ] ] ] O@  ",
"    ] ] -.G G P@..Q@R@k.k.k.k.k.S@T@z@%@U@V@W@X@X@W@V@U@%@z@T@S@k.k.k.k.k.R@Y@K y x ] ] ] Z@    ",
"    ] ] H p f n N `@ #k.k.k.k.k.`.}@l@]@.#2@/@+#+#/@2@.#]@l@}@`.k.k.k.k.k. #@#o ##e ] ] ] $#    ",
"    ] ] f ] G 5.X f %#k.k.k.k.k.k.k.B+4@H@a@&#*#*#&#a@H@4@B+k.k.k.k.k.k.k.=#o n s 5 ] ] ] *.    ",
"      ] r c+r n M s -#l.k.k.k.k.k.k.k.5@5+4@q+;#;#J+4@5+5@k.k.k.k.k.k.k.>#,#f K 9.r 5.] '#      ",
"      ] L w z )#G f !#~#k.k.k.k.k.k.k.k.F@.+{#]#]#y..+F@k.k.k.k.k.k.k.k.^#/#f q (#z e ] _#      ",
"        T ~.O J L 5.6.:#<#k.k.k.k.k.k.k.k.k.k.k.k.k.k.k.k.k.k.k.k.k.k.<#1@p u -.p [#] }#        ",
"        $.w c+K x X M |#i.Z.k.k.k.k.k.k.k.k.k.k.k.k.k.k.k.k.k.k.k.k.Z.1#2#M n f x 5.s 3#        ",
"          )#4#r K p q r 5#6#k.k.k.k.k.k.k.k.k.k.k.k.k.k.k.k.k.k.k.k.}@7#L r 6.r x X 8#          ",
"          $.9#n x p.X f G B.e+`.k.k.k.k.k.k.k.k.k.k.k.k.k.k.k.k.`.e+0#9#H p t M K a#b#          ",
"            X f f G ] v z c#d#e#`.k.k.k.k.k.k.k.k.k.k.k.k.k.k.`.e#f#g#] t )#o w y h#            ",
"              p f y M z f N g#i#k@k.k.k.k.k.k.k.k.k.k.k.k.k.k.k@0#j#k#-.t w f L l#              ",
"                c+f }.V W m#s s n#o#p#H+k.k.k.k.k.k.k.k.H+9+q#r#t p V -.z G c+s#                ",
"                  p r t#-.f y $.K u#v#I+M+H+k.k.k.k.H+w#x#y#z#m#q t f ..y K A#                  ",
"                    i@f G p o ] f r o B#C#D#E#k.k.E#F#G#H#+.f s f p x x I#J#                    ",
"                        K#9#G ] L#s s f M#N#O#P#Q#R#S#L#p ] T#G y U#V#W#                        ",
"                          }#X#X z f ..f y o X y K H y z 5.5.p ] +.Y#Z#                          ",
"                              Y#`#q.z G s ] M ] t n f ] x  $.$+$@$                              ",
"                                      #$$$%$&$e *$=$-$;$>$                                      "};
